<svg xmlns="http://www.w3.org/2000/svg" width="138" height="244" viewBox="0 0 138 244"><defs><style>.a,.b{fill:none;stroke:#08c;stroke-linecap:round;stroke-miterlimit:10;stroke-width:4px;}.a{stroke-linejoin:round;}</style></defs><g transform="translate(-0.5 -0.5)"><g transform="translate(2.5 2.5)"><rect class="a" width="134" height="240" rx="16" transform="translate(0 0)"/><rect class="a" width="120" height="172" transform="translate(6 34)"/><rect class="a" width="20" height="20" transform="translate(16 46)"/><rect class="a" width="20" height="20" transform="translate(44 46)"/><rect class="a" width="20" height="20" transform="translate(70 46)"/><rect class="a" width="20" height="20" transform="translate(96 46)"/><rect class="a" width="20" height="20" transform="translate(16 74)"/><rect class="a" width="20" height="20" transform="translate(44 74)"/><rect class="a" width="20" height="20" transform="translate(70 74)"/><rect class="a" width="20" height="20" transform="translate(96 74)"/><rect class="a" width="20" height="20" transform="translate(16 100)"/><rect class="a" width="20" height="20" transform="translate(44 100)"/><rect class="a" width="20" height="20" transform="translate(70 100)"/><rect class="a" width="20" height="20" transform="translate(96 100)"/><rect class="a" width="20" height="20" transform="translate(16 126)"/><rect class="a" width="20" height="20" transform="translate(44 126)"/><rect class="a" width="20" height="20" transform="translate(70 126)"/><rect class="a" width="20" height="20" transform="translate(96 126)"/><rect class="a" width="20" height="20" transform="translate(16 174)"/><rect class="a" width="20" height="20" transform="translate(44 174)"/><rect class="a" width="20" height="20" transform="translate(70 174)"/><rect class="a" width="20" height="20" transform="translate(96 174)"/><circle class="a" cx="10" cy="10" r="10" transform="translate(56 214)"/><line class="b" x2="26" transform="translate(54 20)"/><line class="b" x2="14" transform="translate(60 14)"/></g></g></svg>