<svg xmlns="http://www.w3.org/2000/svg" width="264" height="242.442" viewBox="0 0 264 242.442"><defs><style>.a,.b{fill:#fff;}.a,.b,.c,.d{stroke:#08c;stroke-linecap:round;stroke-width:4px;}.a,.b,.c{stroke-linejoin:round;}.b,.c,.d{stroke-miterlimit:10;}.c{fill:rgba(0,0,0,0);}.d{fill:none;}</style></defs><g transform="translate(-0.5 -0.5)"><g transform="translate(2.5 2.5)"><rect class="a" width="144" height="14" transform="translate(116)"/><rect class="b" width="245.438" height="86.775" transform="translate(0.054 151.667)"/><rect class="c" width="14.444" height="14.444" transform="translate(39.948 166.219)"/><rect class="c" width="14.444" height="14.444" transform="translate(18.281 166.219)"/><rect class="c" width="14.444" height="14.444" transform="translate(61.615 166.219)"/><rect class="c" width="14.444" height="14.444" transform="translate(104.948 166.219)"/><rect class="c" width="14.444" height="14.444" transform="translate(83.281 166.219)"/><rect class="c" width="14.444" height="14.444" transform="translate(126.615 166.219)"/><rect class="c" width="14.444" height="14.444" transform="translate(147.83 166.219)"/><rect class="c" width="14.444" height="14.444" transform="translate(39.948 209.553)"/><rect class="c" width="14.444" height="14.444" transform="translate(18.281 209.553)"/><rect class="c" width="14.444" height="14.444" transform="translate(61.615 209.553)"/><rect class="c" width="79.444" height="14.444" transform="translate(83.281 209.553)"/><rect class="c" width="14.444" height="14.444" transform="translate(169.497 209.553)"/><rect class="c" width="14.444" height="14.444" transform="translate(191.163 209.553)"/><rect class="c" width="14.444" height="14.444" transform="translate(212.83 209.553)"/><rect class="c" width="14.444" height="14.444" transform="translate(169.497 166.111)"/><rect class="c" width="14.444" height="14.444" transform="translate(191.163 166.111)"/><rect class="c" width="14.444" height="14.444" transform="translate(212.83 166.111)"/><rect class="c" width="14.444" height="14.444" transform="translate(28.889 187.886)"/><rect class="c" width="14.444" height="14.444" transform="translate(50.556 187.886)"/><rect class="c" width="14.444" height="14.444" transform="translate(72.222 187.886)"/><rect class="c" width="14.444" height="14.444" transform="translate(93.889 187.886)"/><rect class="c" width="14.444" height="14.444" transform="translate(115.556 187.886)"/><rect class="c" width="14.444" height="14.444" transform="translate(137.222 187.886)"/><rect class="c" width="14.444" height="14.444" transform="translate(158.889 187.886)"/><rect class="c" width="14.444" height="14.444" transform="translate(180.556 187.886)"/><rect class="c" width="14.444" height="14.444" transform="translate(202.222 187.886)"/><path class="c" d="M130.5,154.167V2.5H274.944v195h-14.5" transform="translate(-14.944 -2.5)"/><line class="d" x2="144" transform="translate(116 14)"/><line class="d" x2="58" transform="translate(130 43)"/><line class="d" x2="102" transform="translate(144 51)"/><line class="d" x2="72" transform="translate(159 58)"/><line class="d" x2="58" transform="translate(130 79)"/><line class="d" x2="102" transform="translate(144 87)"/><line class="d" x2="72" transform="translate(159 94)"/><line class="d" x2="58" transform="translate(130 116)"/><line class="d" x2="102" transform="translate(144 123)"/><line class="d" x2="72" transform="translate(159 130)"/><circle class="b" cx="50.5" cy="50.5" r="50.5" transform="translate(0 36)"/><path class="c" d="M40.944,111.389,26.5,96.944,40.944,82.5" transform="translate(-4.833 -10.278)"/><path class="c" d="M74.5,82.5,88.944,96.944,74.5,111.389" transform="translate(-9.5 -10.278)"/><line class="d" x1="15" y2="29" transform="translate(43 72)"/></g></g></svg>