<svg xmlns="http://www.w3.org/2000/svg" width="291.87" height="244" viewBox="0 0 291.87 244"><defs><style>.a,.b,.c{fill:none;stroke:#08c;stroke-linecap:round;stroke-width:4px;}.a,.b{stroke-linejoin:round;}.b,.c{stroke-miterlimit:10;}</style></defs><g transform="translate(-0.5 -0.5)"><rect class="a" width="287.87" height="16" transform="translate(2.5 2.5)"/><rect class="a" width="287.87" height="72" transform="translate(2.5 74.5)"/><rect class="a" width="72" height="32" transform="translate(18.5 162.5)"/><rect class="a" width="72" height="32" transform="translate(110.5 162.5)"/><rect class="a" width="72" height="32" transform="translate(202.5 162.5)"/><rect class="b" width="287.87" height="240" transform="translate(2.5 2.5)"/><line class="c" x1="287.87" transform="translate(2.5 18.5)"/><line class="c" x2="287.87" transform="translate(2.5 74.5)"/><line class="c" x1="287.87" transform="translate(2.5 146.5)"/><rect class="b" width="72" height="32" transform="translate(18.5 162.5)"/><rect class="b" width="72" height="32" transform="translate(110.5 162.5)"/><rect class="b" width="72" height="32" transform="translate(202.5 162.5)"/><line class="c" x2="256" transform="translate(18.5 58.5)"/><line class="c" x2="80" transform="translate(106.5 34.5)"/><line class="c" x2="48" transform="translate(122.5 42.5)"/><line class="c" x2="56" transform="translate(18.5 202.5)"/><line class="c" x2="72" transform="translate(18.5 210.5)"/><line class="c" x2="72" transform="translate(110.5 202.5)"/><line class="c" x2="36" transform="translate(110.5 210.5)"/><line class="c" x2="16" transform="translate(154.5 210.5)"/><line class="c" x2="72" transform="translate(202.5 202.5)"/><line class="c" x2="40" transform="translate(202.5 210.5)"/></g></svg>